<mxfile host="app.diagrams.net" agent="Mozilla/5.0 (Windows NT 10.0; Win64; x64) AppleWebKit/537.36 (KHTML, like Gecko) Chrome/127.0.0.0 Safari/537.36" version="24.7.6">
  <diagram id="C5RBs43oDa-KdzZeNtuy" name="Page-1">
    <mxGraphModel dx="1221" dy="725" grid="1" gridSize="10" guides="1" tooltips="1" connect="1" arrows="1" fold="1" page="1" pageScale="1" pageWidth="827" pageHeight="1169" math="0" shadow="0">
      <root>
        <mxCell id="WIyWlLk6GJQsqaUBKTNV-0" />
        <mxCell id="WIyWlLk6GJQsqaUBKTNV-1" parent="WIyWlLk6GJQsqaUBKTNV-0" />
        <mxCell id="U9104bYufesRvSmWZw6B-3" value="" style="edgeStyle=orthogonalEdgeStyle;rounded=0;orthogonalLoop=1;jettySize=auto;html=1;" edge="1" parent="WIyWlLk6GJQsqaUBKTNV-1" source="U9104bYufesRvSmWZw6B-0" target="U9104bYufesRvSmWZw6B-2">
          <mxGeometry relative="1" as="geometry" />
        </mxCell>
        <mxCell id="U9104bYufesRvSmWZw6B-0" value="start" style="ellipse;whiteSpace=wrap;html=1;" vertex="1" parent="WIyWlLk6GJQsqaUBKTNV-1">
          <mxGeometry x="140" y="40" width="120" height="40" as="geometry" />
        </mxCell>
        <mxCell id="U9104bYufesRvSmWZw6B-5" value="" style="edgeStyle=orthogonalEdgeStyle;rounded=0;orthogonalLoop=1;jettySize=auto;html=1;" edge="1" parent="WIyWlLk6GJQsqaUBKTNV-1" source="U9104bYufesRvSmWZw6B-2" target="U9104bYufesRvSmWZw6B-4">
          <mxGeometry relative="1" as="geometry" />
        </mxCell>
        <mxCell id="U9104bYufesRvSmWZw6B-2" value="pygame초기화" style="whiteSpace=wrap;html=1;" vertex="1" parent="WIyWlLk6GJQsqaUBKTNV-1">
          <mxGeometry x="140" y="150" width="120" height="60" as="geometry" />
        </mxCell>
        <mxCell id="U9104bYufesRvSmWZw6B-7" value="" style="edgeStyle=orthogonalEdgeStyle;rounded=0;orthogonalLoop=1;jettySize=auto;html=1;" edge="1" parent="WIyWlLk6GJQsqaUBKTNV-1" source="U9104bYufesRvSmWZw6B-4" target="U9104bYufesRvSmWZw6B-6">
          <mxGeometry relative="1" as="geometry" />
        </mxCell>
        <mxCell id="U9104bYufesRvSmWZw6B-14" value="" style="edgeStyle=orthogonalEdgeStyle;rounded=0;orthogonalLoop=1;jettySize=auto;html=1;" edge="1" parent="WIyWlLk6GJQsqaUBKTNV-1" source="U9104bYufesRvSmWZw6B-4" target="U9104bYufesRvSmWZw6B-13">
          <mxGeometry relative="1" as="geometry" />
        </mxCell>
        <mxCell id="U9104bYufesRvSmWZw6B-4" value="run == True" style="rhombus;whiteSpace=wrap;html=1;" vertex="1" parent="WIyWlLk6GJQsqaUBKTNV-1">
          <mxGeometry x="160" y="280" width="80" height="80" as="geometry" />
        </mxCell>
        <mxCell id="U9104bYufesRvSmWZw6B-9" value="" style="edgeStyle=orthogonalEdgeStyle;rounded=0;orthogonalLoop=1;jettySize=auto;html=1;" edge="1" parent="WIyWlLk6GJQsqaUBKTNV-1" source="U9104bYufesRvSmWZw6B-6" target="U9104bYufesRvSmWZw6B-8">
          <mxGeometry relative="1" as="geometry" />
        </mxCell>
        <mxCell id="U9104bYufesRvSmWZw6B-6" value="업데이트" style="whiteSpace=wrap;html=1;" vertex="1" parent="WIyWlLk6GJQsqaUBKTNV-1">
          <mxGeometry x="140" y="450" width="120" height="60" as="geometry" />
        </mxCell>
        <mxCell id="U9104bYufesRvSmWZw6B-11" value="" style="edgeStyle=orthogonalEdgeStyle;rounded=0;orthogonalLoop=1;jettySize=auto;html=1;" edge="1" parent="WIyWlLk6GJQsqaUBKTNV-1" source="U9104bYufesRvSmWZw6B-8" target="U9104bYufesRvSmWZw6B-10">
          <mxGeometry relative="1" as="geometry" />
        </mxCell>
        <mxCell id="U9104bYufesRvSmWZw6B-8" value="" style="whiteSpace=wrap;html=1;" vertex="1" parent="WIyWlLk6GJQsqaUBKTNV-1">
          <mxGeometry x="140" y="590" width="120" height="60" as="geometry" />
        </mxCell>
        <mxCell id="U9104bYufesRvSmWZw6B-12" style="edgeStyle=orthogonalEdgeStyle;rounded=0;orthogonalLoop=1;jettySize=auto;html=1;exitX=0.5;exitY=1;exitDx=0;exitDy=0;entryX=0;entryY=0.5;entryDx=0;entryDy=0;" edge="1" parent="WIyWlLk6GJQsqaUBKTNV-1" source="U9104bYufesRvSmWZw6B-10" target="U9104bYufesRvSmWZw6B-4">
          <mxGeometry relative="1" as="geometry">
            <Array as="points">
              <mxPoint x="200" y="810" />
              <mxPoint x="90" y="810" />
              <mxPoint x="90" y="320" />
            </Array>
          </mxGeometry>
        </mxCell>
        <mxCell id="U9104bYufesRvSmWZw6B-10" value="" style="whiteSpace=wrap;html=1;" vertex="1" parent="WIyWlLk6GJQsqaUBKTNV-1">
          <mxGeometry x="140" y="730" width="120" height="60" as="geometry" />
        </mxCell>
        <mxCell id="U9104bYufesRvSmWZw6B-13" value="게임 종료" style="whiteSpace=wrap;html=1;" vertex="1" parent="WIyWlLk6GJQsqaUBKTNV-1">
          <mxGeometry x="280" y="450" width="120" height="60" as="geometry" />
        </mxCell>
        <mxCell id="U9104bYufesRvSmWZw6B-15" value="yes" style="text;html=1;align=center;verticalAlign=middle;resizable=0;points=[];autosize=1;strokeColor=none;fillColor=none;" vertex="1" parent="WIyWlLk6GJQsqaUBKTNV-1">
          <mxGeometry x="200" y="360" width="40" height="30" as="geometry" />
        </mxCell>
        <mxCell id="U9104bYufesRvSmWZw6B-16" value="no" style="text;html=1;align=center;verticalAlign=middle;resizable=0;points=[];autosize=1;strokeColor=none;fillColor=none;" vertex="1" parent="WIyWlLk6GJQsqaUBKTNV-1">
          <mxGeometry x="240" y="290" width="40" height="30" as="geometry" />
        </mxCell>
      </root>
    </mxGraphModel>
  </diagram>
</mxfile>
